<svg width="32" height="32" viewBox="0 0 32 32" fill="none" xmlns="http://www.w3.org/2000/svg">
  <!-- Blue Background -->
  <rect width="32" height="32" rx="4" fill="#0066FF"/>
  
  <!-- Compact "EXE" - BOLDER -->
  <g transform="translate(3, 6)">
    <!-- Left "E" - THICKER -->
    <rect x="0" y="0" width="3" height="20" fill="white" rx="1"/>
    <rect x="0" y="0" width="8" height="3" fill="white" rx="1"/>
    <rect x="0" y="8.5" width="7" height="3" fill="white" rx="1"/>
    <rect x="0" y="17" width="8" height="3" fill="white" rx="1"/>
    
    <!-- Center "X" - THICKER -->
    <g transform="translate(10, 0)">
      <rect x="0" y="0" width="3" height="20" fill="white" rx="1" transform="rotate(45 1.5 10)"/>
      <rect x="0" y="0" width="3" height="20" fill="white" rx="1" transform="rotate(-45 1.5 10)"/>
    </g>
    
    <!-- Right "E" (mirrored) - THICKER -->
    <g transform="translate(23, 0)">
      <rect x="0" y="0" width="3" height="20" fill="white" rx="1"/>
      <rect x="-5" y="0" width="8" height="3" fill="white" rx="1"/>
      <rect x="-4" y="8.5" width="7" height="3" fill="white" rx="1"/>
      <rect x="-5" y="17" width="8" height="3" fill="white" rx="1"/>
    </g>
  </g>
</svg>

