<svg width="320" height="120" viewBox="0 0 320 120" fill="none" xmlns="http://www.w3.org/2000/svg">
  <!-- Blue Background -->
  <rect width="320" height="120" rx="12" fill="#0066FF"/>
  
  <!-- Left "E" - x: 30-70 -->
  <g id="left-e">
    <rect x="30" y="25" width="12" height="70" fill="white" rx="3"/>
    <rect x="30" y="25" width="40" height="12" fill="white" rx="3"/>
    <rect x="30" y="54" width="33" height="12" fill="white" rx="3"/>
    <rect x="30" y="83" width="40" height="12" fill="white" rx="3"/>
  </g>
  
  <!-- Center "X" - PERFECTLY CENTERED at x: 85 (gap of 15px on each side) -->
  <g id="center-x">
    <!-- X positioned so it touches both E's equally -->
    <rect x="79" y="25" width="12" height="70" fill="white" rx="3" transform="rotate(45 85 60)"/>
    <rect x="79" y="25" width="12" height="70" fill="white" rx="3" transform="rotate(-45 85 60)"/>
  </g>
  
  <!-- Right "E" - x: 100-140 (gap of 15px from X) -->
  <g id="right-e">
    <rect x="128" y="25" width="12" height="70" fill="white" rx="3"/>
    <rect x="100" y="25" width="40" height="12" fill="white" rx="3"/>
    <rect x="107" y="54" width="33" height="12" fill="white" rx="3"/>
    <rect x="100" y="83" width="40" height="12" fill="white" rx="3"/>
  </g>
  
  <!-- "Pay" Text - ALIGNED with E's bottom baseline (y=95) -->
  <text x="175" y="95" font-family="'Inter', -apple-system, BlinkMacSystemFont, sans-serif" font-size="36" font-weight="600" fill="#1a1a1a">Pay</text>
</svg>

