<svg width="200" height="200" viewBox="0 0 200 200" fill="none" xmlns="http://www.w3.org/2000/svg">
  <!-- Blue Background -->
  <rect width="200" height="200" rx="20" fill="#0066FF"/>
  
  <!-- EXE - PERFECTLY CENTERED & ALIGNED -->
  <g transform="translate(35, 65)">
    <!-- Left "E" -->
    <g id="left-e">
      <rect x="0" y="0" width="10" height="70" fill="white" rx="3"/>
      <rect x="0" y="0" width="35" height="10" fill="white" rx="3"/>
      <rect x="0" y="30" width="28" height="10" fill="white" rx="3"/>
      <rect x="0" y="60" width="35" height="10" fill="white" rx="3"/>
    </g>
    
    <!-- Center "X" - PERFECTLY CENTERED -->
    <g id="center-x" transform="translate(50, 0)">
      <rect x="0" y="0" width="10" height="70" fill="white" rx="3" transform="rotate(45 5 35)"/>
      <rect x="0" y="0" width="10" height="70" fill="white" rx="3" transform="rotate(-45 5 35)"/>
    </g>
    
    <!-- Right "E" (mirrored) - PERFECTLY ALIGNED -->
    <g id="right-e" transform="translate(95, 0)">
      <rect x="0" y="0" width="10" height="70" fill="white" rx="3"/>
      <rect x="-25" y="0" width="35" height="10" fill="white" rx="3"/>
      <rect x="-18" y="30" width="28" height="10" fill="white" rx="3"/>
      <rect x="-25" y="60" width="35" height="10" fill="white" rx="3"/>
    </g>
  </g>
</svg>

